<?xml version="1.0" encoding="UTF-8" standalone="no"?><!DOCTYPE svg PUBLIC "-//W3C//DTD SVG 1.1//EN" "http://www.w3.org/Graphics/SVG/1.1/DTD/svg11.dtd"><svg width="100%" height="100%" viewBox="0 0 1000 1000" version="1.1" xmlns="http://www.w3.org/2000/svg" xmlns:xlink="http://www.w3.org/1999/xlink" xml:space="preserve" xmlns:serif="http://www.serif.com/" style="fill-rule:evenodd;clip-rule:evenodd;stroke-linejoin:round;stroke-miterlimit:2;"><rect id="ArtBoard1" x="0" y="0" width="1000" height="1000" style="fill:none;"/><g id="ArtBoard11" serif:id="ArtBoard1"><rect x="179.674" y="53.655" width="614.05" height="946.345" style="fill:none;"/><g><path d="M659.002,394.729c-6.802,-1.589 -13.242,-3.09 -20.49,-4.785c0.335,-1.673 0.929,-4.693 1.656,-8.365c4.187,1.673 9.038,5.23 8.356,-4.015c1.867,2.065 3.02,3.341 3.637,4.023c6.678,-6.22 13.916,-11.601 19.375,-18.412c6.612,-8.237 10.962,-18.319 17.737,-26.389c4.416,-5.253 4.883,-10.914 6.582,-16.73c1.849,-6.327 1.858,-11.557 -2.391,-17.122c-1.329,-1.739 -0.308,-6.433 1.146,-8.872c2.478,-4.16 7.074,-7.154 9.138,-11.433c5.398,-11.196 10.672,-22.577 14.419,-34.385c1.625,-5.116 0.212,-11.055 6.274,-14.221c0.678,-0.356 0.973,-2.021 0.95,-3.068c-0.409,-17.008 0.379,-34.187 -1.862,-50.957c-1.294,-9.704 -7.365,-18.812 -11.693,-28.001c-0.445,-0.95 -3.667,-0.594 -4.763,-0.735c-2.268,-5.723 -4.451,-11.226 -6.692,-16.884c-1.343,0.929 -2.474,1.703 -3.834,2.641c-1.339,-11.61 -3.324,-13.639 -15.387,-14.436c-2.145,-0.145 -5.838,1.673 -6.336,3.333c-0.726,2.417 -0.185,6.705 1.528,8.105c6.177,5.054 13.097,9.193 19.648,13.803c0.74,0.524 1.005,1.827 1.317,2.821c1.246,3.932 1.681,8.335 3.755,11.756c12.164,20.089 4.068,37.356 -6.754,54.518c-3.041,4.821 -5.265,9.505 -11.921,11.064c-2.558,0.598 -3.197,7.167 -5.931,9.699c-7.431,6.899 -15.483,13.137 -23.372,19.535c-1.845,1.501 -4.015,2.597 -6.793,4.358l0,-6.547c-8.532,15.591 -33.349,35.715 -41.226,35.041c-1.972,-4.609 -3.843,-8.628 -5.424,-12.758c-2.998,-7.815 -6.85,-4.271 -10.129,-0.587c-4.676,5.258 -8.088,11.949 -13.494,16.176c-8.871,6.934 -19.354,11.799 -28.317,18.637c-7.902,6.027 -15.422,12.93 -21.718,20.591c-7.299,8.889 -13.335,18.887 -20.784,29.916c-0.524,-0.022 -1.061,-0.017 -1.581,-0.035c-0.898,-4.174 -2.065,-8.061 -1.993,-11.91c0.193,-10.667 0.8,-21.366 2.02,-31.958c0.375,-3.258 2.518,-7.801 5.133,-9.017c6.283,-2.928 6.873,-7.318 5.719,-14.141c-2.576,1.052 -4.856,2.245 -7.286,2.888c-1.567,0.414 -3.813,0.639 -4.9,-0.185c-1.039,-0.784 -1.4,-3.056 -1.321,-4.636c0.563,-11.94 2.857,-24.047 1.524,-35.75c-1.11,-9.712 -2.316,-19.516 1.254,-28.084c4.561,-10.945 11.689,-20.873 18.174,-30.942c6.075,-9.435 12.749,-18.478 20.586,-29.744c0,7.651 -0.079,12.842 0.04,18.024c0.044,1.946 0.268,3.971 0.858,5.816c4.398,13.833 15.017,22.617 25.654,31.4c10.2,8.422 22.382,5.828 30.341,-5.464c2.114,-3.003 7.326,-4.486 11.39,-5.31c7.383,-1.496 12.842,-10.571 10.099,-17.777c-0.924,-2.431 -1.778,-5.082 -1.774,-7.631c0.022,-13.102 -5.107,-24.65 -10.443,-36.154c-4.543,-9.796 -13.841,-13.503 -22.951,-16.99c-4.666,-1.787 -10.609,-0.863 -14.704,-3.302c-2.289,-1.365 -3.447,-7.551 -2.474,-10.764c1.414,-4.654 5.208,-8.581 9.589,-15.261c-0.695,-1.972 0.018,-4.186 1.417,-7.22c3.91,-8.47 6.49,-17.553 9.4,-26.49l141.743,0l0,-17.752l-408.178,0l-1.189,5.262l-11.283,49.921l-15.467,68.449l-8.522,37.721l-64.951,287.411l17.742,0c7.15,-10.963 15.69,-22.146 25.742,-33.086c-1.735,4.239 -3.324,8.519 -4.412,12.917c-4.081,16.537 -7.854,33.337 -5.168,50.785c2.549,16.549 4.287,33.223 6.652,49.807c0.357,2.501 2.254,4.768 3.328,7.189c6.388,14.371 12.833,28.711 18.962,43.187c0.629,1.487 -1.704,4.464 -0.942,5.626c7.241,11.024 13.524,23.215 22.915,32.069c4.799,4.526 9.306,9.554 14.096,14.164c9.273,8.919 17.786,18.645 27.34,27.23c5.186,4.658 11.961,7.516 17.843,11.451c5.908,3.95 11.214,8.978 17.47,12.204c10.09,5.209 20.89,9.035 31.108,14.023c6.067,2.959 11.538,7.119 17.385,10.553c2.303,1.352 5.059,1.946 7.339,3.328c9.685,5.847 19.305,11.804 28.823,17.924c0.687,0.444 0.846,3.377 0.405,3.619c-1.373,0.752 -3.298,1.355 -4.746,0.986c-14.779,-3.747 -29.312,-9.55 -44.298,-11.13c-19.34,-2.038 -39.173,-1.919 -57.792,6.01c-1.307,0.554 -2.372,1.782 -3.398,2.839c-1.281,1.326 -2.126,3.342 -3.641,4.117c-8.387,4.293 -16.919,8.299 -25.164,12.288c0.791,-6.762 -8.005,-17.998 -18.377,-22.401c-8.783,-3.729 -17.605,-11.562 -27.591,0.119c0.292,-2.082 0.449,-3.214 0.802,-5.763c-8.382,1.964 -17.13,2.303 -23.985,6.076c-5.376,2.963 -10.073,7.308 -14.541,11.865c-18.13,-31.673 -28.885,-66.723 -34.041,-101.645l-19.018,0c1.844,14.436 4.697,28.93 8.602,43.257c8.607,31.549 22.475,62.249 42.489,89.743c-0.418,8.431 4.226,20.715 10.979,22.454c3.36,0.862 6.714,1.875 10.087,2.831c10.689,11.187 22.642,21.595 35.982,30.99c-7.669,11.086 -10.518,23.475 -4.095,36.895c4.104,8.567 10.288,16.136 15.779,24.523c0.171,-0.111 -1.48,0.973 -3.681,2.416c10.307,0 19.939,-0.554 29.466,0.203c5.904,0.471 11.601,3.914 17.483,4.218c5.463,0.286 11.565,-0.784 16.43,-3.192c4.469,-2.211 7.928,-6.772 11.296,-10.752c1.559,-1.836 2.008,-4.706 2.659,-7.189c0.608,-2.329 1.211,-4.662 1.806,-7.001c24.311,6.596 51.231,10.801 80.926,12.183c7.089,0.33 14.283,0.55 21.692,0.55c109.733,0 209.344,-52.176 258.775,-145.803c3.138,-5.948 6.137,-12.015 8.862,-18.297c15.325,-35.332 23.918,-75.863 23.918,-121.136c0,-43.005 -8.161,-84.038 -23.918,-120.884c-18.57,-43.44 -47.763,-81.004 -86.659,-109.12c-0.775,-4.944 -3.958,-9.329 -6.723,-13.701c-1.699,-2.689 -3.68,-5.208 -5.124,-7.229m-188.049,1.788c-3.363,13.578 -1.004,27.552 -7.554,41.279c-10.8,22.626 -17.677,47.025 -20.195,72.433c-1.088,10.98 -5.244,21.643 -6.511,32.619c-0.929,8.035 0.898,16.347 0.916,24.536c0.021,10.91 -0.494,21.824 -0.85,32.73c-0.031,0.946 -0.603,1.875 -2.871,2.879c-4.314,-21.983 -9.839,-43.815 -12.529,-65.991c-1.937,-15.965 -0.617,-32.413 0.211,-48.597c0.802,-15.589 2.237,-31.201 4.526,-46.637c1.563,-10.549 4.09,-21.221 8.162,-31.013c1.823,-4.381 8.321,-7 12.987,-9.963c6.411,-4.064 10.078,-12.222 9.726,-19.851c4.486,-0.37 9.007,-0.697 13.634,-0.912c0.925,5.622 1.62,11.35 0.348,16.488m-34.406,-65.697c4.98,-0.616 8.541,-1.051 11.795,-1.453c5.793,-9.928 12.124,-20.767 18.451,-31.61c0.925,0.267 1.844,0.536 2.764,0.805l0,47.196c-11.979,-5.419 -21.77,-9.852 -33.01,-14.938m12.464,21.912c4.186,3.439 8.638,6.574 12.767,10.057c-10.152,0.704 -20.018,1.764 -29.567,3.191c1.105,-3.804 2.175,-7.621 3.544,-11.328c2.659,-7.203 6.353,-7.585 13.256,-1.92m9.417,445.066c-5.732,0.63 -11.702,0.475 -17.126,2.126c-5.063,1.542 -11.002,1.018 -14.718,2.559c-4.82,1.998 -9.751,2.359 -14.475,3.847c-5.723,1.801 -12.185,1.814 -17.447,4.398c-6.837,3.356 -12.772,8.542 -19.178,12.808c-2.663,1.774 -5.546,3.214 -8.474,4.887c0,1.612 0.88,4.407 -0.145,5.771c-5.799,7.727 -14.938,12.812 -17.91,22.912c-0.238,0.801 -4.076,1.66 -5.115,0.916c-6.648,-4.75 -11.548,-0.819 -17.884,1.431c-4.53,1.611 -8.773,3.447 -12.635,5.776c-7.506,-5.195 -14.51,-10.751 -21.1,-16.585c2.245,-1.149 4.38,-2.857 6.743,-3.755c15.422,-5.86 28.348,-14.318 33.636,-31.065c0.528,-1.66 0.573,-3.474 0.695,-4.266c4.301,-1.656 8.374,-3.038 12.288,-4.769c9.619,-4.261 19.164,-8.686 29.488,-13.384c5.186,3.068 27.885,0.638 31.944,-5.146c0.405,2.011 0.679,3.345 0.925,4.561c17.148,-1.925 34.023,-1.062 50.4,4.424c0.031,0.85 0.058,1.704 0.088,2.554m9.76,21.881c0.022,21.709 -0.004,43.419 -0.004,65.128c-0.005,9.268 -0.005,18.528 -0.005,27.764c-29.782,-1.44 -56.457,-5.856 -80.306,-12.715c-3.297,-8.206 -6.537,-16.439 -10.209,-24.479c-1.277,-2.805 -3.839,-5.023 -6.802,-8.757c-1.58,6.631 -2.532,10.606 -3.781,15.85c-2.229,-7.066 5.428,-14.943 -4.108,-18.276c5.291,-6.137 9.65,-12.534 15.299,-17.438c9.747,-8.471 20.331,-15.973 30.5,-23.96c13.463,-10.575 30.879,-8.096 45.83,-13.912c6.252,-2.435 13.577,4.015 13.586,10.795m-178.623,-310.454c2.787,-9.606 9.03,-18.025 17.465,-23.347c8.044,-5.077 17.359,-8.194 26.274,-11.773c0.947,-0.379 2.968,1.92 4.332,2.867c7.11,-4.54 13.494,-9.418 20.574,-12.896c6.401,-3.144 6.986,-8.991 8.025,-14.269c3.407,-17.307 6.185,-34.737 9.083,-52.145c8.249,-2.863 16.821,-5.469 25.798,-7.723c-2.087,4.584 0.656,5.601 5.037,5.94c-7.485,8.422 -7.115,11.552 2.263,14.04c-1.753,1.867 -3.302,3.518 -5.358,5.714c-1.436,-1.721 -2.822,-3.381 -4.209,-5.045c-0.604,0.269 -1.21,0.537 -1.818,0.801c1.034,3.068 2.065,6.133 2.699,8.008c-1.453,4.003 -2.563,7.058 -3.668,10.113c2.84,-0.533 5.679,-1.069 9.791,-1.848c-6.516,10.579 -12.653,20.547 -18.794,30.515c0.229,0.272 0.453,0.55 0.678,0.823c1.686,-1.611 3.372,-3.223 5.054,-4.834c0.463,0.167 0.929,0.33 1.391,0.493c-1.567,4.776 -3.134,9.549 -4.737,14.431c1.536,1.242 5.054,2.721 5.869,5.116c0.761,2.263 -1.77,5.442 -2.052,8.3c-0.532,5.388 -1.162,10.922 -0.497,16.236c0.664,5.301 3.05,10.36 4.341,15.608c1.258,5.12 1.752,10.443 3.178,15.506c2.809,9.99 -4.82,20.499 1.862,30.401c1.273,1.883 0.185,5.358 0.185,8.096c-0.832,0.141 -1.664,0.286 -2.496,0.427c-1.039,-3.315 -2.083,-6.631 -3.126,-9.945c-0.347,0.039 -0.7,0.074 -1.052,0.114c0.568,6.604 0.973,13.23 1.739,19.812c0.775,6.639 0.753,7.705 1.735,14.401c3.747,3.747 8.14,2.971 10.495,2.105c2.259,11.072 3.39,21.34 14.308,26.799c-1.73,-0.357 -3.46,-0.718 -4.649,-0.961c-0.709,6.296 -1.382,12.253 -2.038,18.105c5.239,-0.697 18.952,21.709 18.367,30.726c5.085,-0.211 4.949,0.581 6.85,4.363c3.135,6.238 7.322,11.953 11.262,17.755c0.15,0.216 2.399,-0.99 2.003,-0.823c3.707,7.031 7.19,13.292 10.355,19.716c3.346,6.779 2.738,10.135 0.255,11.649c0.225,4.116 0.392,7.084 0.573,10.421l1.897,0l0,28.261c-5.798,-2.664 -11.089,-4.13 -15.219,-7.172c-12.64,-9.312 -24.817,-19.249 -37.206,-28.904c-9.038,-7.044 -19.191,-13.05 -26.842,-21.357c-5.688,-6.182 -8.567,-15.145 -11.97,-23.18c-4.605,-10.875 -9.039,-21.89 -12.486,-33.17c-1.532,-5.01 -2.589,-12.191 -0.141,-15.985c5.305,-8.221 2.246,-18.065 9.43,-26.871c7.498,-9.183 7.718,-24.31 11.381,-37.796c0.105,0.017 2.267,0.321 6.146,0.872c-8.321,-8.458 -17.456,-14.582 -21.986,-23.145c-5.508,-10.403 -15.779,-19.874 -11.174,-34.35c3.135,-9.84 1.079,-11.213 -9.131,-9.624c-9.421,1.461 -18.896,2.602 -26.895,3.689c-11.006,8.397 -21.044,16.052 -31.54,24.061c-8.918,-4.891 -3.407,-12.93 -1.611,-19.121m116.341,84.875c-1.092,-2.642 -2.523,-5.204 -3.196,-7.952c-1.162,-4.71 -1.853,-9.536 -2.743,-14.312c0.656,-0.053 1.312,-0.107 1.968,-0.163c3.179,6.331 1.1,8.738 4.685,15.876c-1.141,0.501 1.703,5.49 -0.714,6.551m-105.885,-361.213c3.725,4.575 7.484,9.119 11.257,13.649c11.231,13.458 23.51,26.104 35.947,38.484c7.889,7.854 16.747,14.797 25.544,21.669c5.173,4.042 10.671,8.542 16.755,10.312c7.115,2.068 11.822,6.181 16.712,11.037c1.502,1.488 4.918,1.043 7.515,1.497c0.559,13.208 -9.936,25.02 -3.953,38.695c-1.827,-1.435 -3.659,-2.871 -6.877,-5.394c0.678,3.321 1.194,5.856 1.704,8.361c-7.894,1.827 -15.515,3.927 -22.937,6.221c-1.756,-1.078 -3.32,-1.814 -4.698,-1.563c-10.028,1.84 -21.206,3.042 -29.214,8.506c-6.728,4.588 -13.217,9.554 -20.824,11.676c-15.136,4.218 -25.988,14.643 -36.361,24.964c-1.417,1.413 -2.58,3.218 -3.689,5.12c-15.382,12.054 -28.445,25.042 -39.152,38.271l52.271,-231.505Zm133.797,-140.691c2.051,11.09 13.784,19.86 8.031,33.007c-0.661,1.51 4.243,5.454 5.973,7.546c0,19.358 1.053,38.924 -0.413,58.3c-0.828,10.936 -6.252,21.45 -8.806,32.342c-4.9,20.891 -9.183,41.926 -13.819,62.878c-2.136,9.638 -4.495,19.218 -7.418,31.638c-7.331,-10.944 -21.581,-11.054 -23.523,-24.259c-6.291,9.563 -10.588,-1.078 -14.348,-3.064c-6.595,-3.487 -11.776,-9.826 -17.209,-15.312c-12.058,-12.182 -25.332,-23.519 -35.453,-37.172c-7.74,-10.443 -14.243,-21.841 -20.446,-33.403l25.927,-114.808c0.567,0.167 1.131,0.325 1.717,0.524c11.297,3.782 21.457,11.394 35.793,6.071c6.621,-2.456 12.423,-9.299 21.127,-7.141c-0.634,-2.329 -1.128,-4.13 -1.158,-4.249c9.126,-11.393 19.745,-11.152 30.879,-3.984c-0.141,0.237 -0.96,1.58 -0.868,1.43c4.993,3.246 13.292,5.751 14.014,9.656m38.905,-20.789c-0.313,8.77 -0.612,17.544 -0.982,26.31c-0.612,14.573 -0.893,29.181 -2.25,43.687c-0.444,4.764 -3.803,9.25 -5.828,13.865c-0.797,-0.044 -1.598,-0.089 -2.395,-0.133l0,-12.261c-1.859,0.202 -3.227,0.348 -4.848,0.524c2.844,-7.683 6.389,-14.066 -2.113,-21.005c-2.981,-2.43 -0.946,-11.025 -1.157,-16.805c-0.063,-1.7 0.748,-3.994 -0.08,-5.015c-6.749,-8.361 -3.927,-20.521 -11.939,-28.634c-0.145,-0.15 -0.22,-0.37 -0.353,-0.533l31.945,0Zm1.228,136.552c0.273,1.577 -1.167,3.386 -1.479,5.147c-0.37,2.07 -0.273,4.218 -0.546,6.309c-0.475,3.615 -1.546,7.212 -1.546,10.817c0.009,13.032 -0.699,25.87 -7.342,37.56c-4.848,8.532 -10.126,16.835 -14.608,25.553c-2.998,5.829 -4.944,12.195 -7.361,18.324c0.431,0.084 0.867,0.167 1.299,0.255c-1.541,1.88 -3.849,3.536 -4.491,5.688c-2.06,6.921 -1.823,6.992 -10.821,6.988c12.353,-50.248 24.609,-100.117 36.866,-149.982c1.062,-0.022 2.122,-0.039 3.183,-0.061c0.92,4.719 1.783,9.448 2.774,14.154c1.347,6.419 2.963,12.79 4.072,19.248m-1.167,544.249c0.996,-7.467 1.991,-14.934 3.073,-23.034c5.807,4.811 4.725,14.594 -3.073,23.034m7.379,102.274c-0.691,2.356 -1.387,4.707 -2.077,7.062c-0.503,1.717 -1.973,4.363 -1.352,5.015c4.926,5.186 0.938,9.227 -3.025,13.348c0.92,-8.633 1.836,-17.266 2.756,-25.901c1.233,0.159 2.465,0.318 3.698,0.476m18.2,34.011c0.344,-21.085 1.035,-42.165 1.567,-63.249c0.11,-4.451 1.273,-6.507 6.348,-4.258c6.97,3.087 26.108,17.598 30.726,23.801c1.079,1.449 3.254,2.07 4.367,3.501c7.845,10.042 15.713,20.076 23.118,30.44c1.206,1.682 0.167,4.966 0.167,8.849c0.832,0.934 2.963,3.329 5.935,6.67c-11.324,8.567 -23.958,12.204 -33.9,15.427c-12.463,1.84 -25.16,2.946 -38.037,3.293c-0.194,-8.163 -0.423,-16.321 -0.291,-24.474m1.801,-131.895c3.434,6.195 6.546,11.979 9.818,17.667c2.812,4.9 6.128,9.536 8.637,14.578c2.479,4.984 7.643,9.369 6.521,16.162c-17.919,-12.385 -32.685,-24.703 -24.976,-48.407m4.701,-685.191c-0.739,0.911 -1.395,1.721 -2.179,2.685c-0.378,-0.95 -0.721,-1.805 -1.074,-2.685l3.253,0Zm47.301,44.11c0.401,-5.688 -0.682,-12.037 1.488,-16.946c3.906,-8.823 5.833,-17.91 6.982,-27.164l11.394,0c-1.703,4.411 -3.394,8.822 -5.133,13.216c-4.138,10.448 -8.36,20.86 -12.547,31.286c-0.731,-0.132 -1.458,-0.26 -2.184,-0.392m-13.669,6.274c-2.365,10.443 -9.646,13.392 -18.852,8.061c-2.329,-1.347 -6.138,-0.608 -9.166,-0.154c-3.298,0.489 -6.476,1.757 -9.707,2.685c-0.339,-0.797 -0.678,-1.589 -1.017,-2.386c1.558,-1.704 3.116,-3.407 4.675,-5.116c-0.748,-0.026 -1.501,-0.052 -2.254,-0.075c-0.256,-6.507 -1.334,-13.119 -0.498,-19.481c0.674,-5.112 1.079,-11.514 10.14,-10.915c3.041,0.203 8.527,-5.27 9.363,-8.954c1.497,-6.587 5.767,-10.422 10.227,-14.049l19.38,0c-0.431,1.347 -0.937,2.676 -1.281,4.046c-3.883,15.392 -7.502,30.858 -11.01,46.338m-10.915,26.455c3.183,-3.799 6.05,-7.22 8.915,-10.645c1.656,1.541 3.312,3.077 4.967,4.613c-2.373,1.237 -4.747,2.475 -8.136,4.245c0.215,0.924 0.788,3.368 1.766,7.537c-3.219,-2.465 -5.028,-3.847 -7.512,-5.75m-24.962,-1.694c4.535,-1.986 9.937,-4.712 15.607,-6.626c1.81,-0.608 5.327,0.267 6.279,1.672c0.964,1.431 0.585,5.31 -0.696,6.455c-8.026,7.185 -10.011,16.329 -10.474,26.499c-0.15,3.271 -2.496,6.564 -4.249,9.616c-1.633,2.848 -3.812,5.389 -7.114,9.945c-2.628,-16.321 -0.603,-31.316 0.647,-47.561m128.598,323.868c12.723,12.53 26.533,24.223 37.614,38.083c10.871,13.595 18.879,29.476 28.225,44.304c2.179,3.46 4.284,7.163 7.242,9.854c1.264,1.148 4.632,-0.027 7.995,-0.194c-1.743,1.937 -3.324,3.693 -5.199,5.775c3.653,7.397 7.352,14.873 11.046,22.345c0.158,-0.234 0.317,-0.472 0.479,-0.705c1.577,6.098 3.078,12.222 4.743,18.298c3.983,14.537 8.752,28.908 11.793,43.639c1.665,8.057 0.296,16.713 0.591,25.086c0.753,21.766 -2.783,42.781 -10.038,63.306c-5.424,15.339 -12.098,29.942 -21.168,43.529c-6.097,9.122 -10.495,19.455 -17.121,28.124c-6.564,8.599 -13.789,17.977 -22.937,22.916c-7.581,4.091 -11.777,10.914 -18.636,15.154c-7.858,4.852 -14.982,10.883 -22.581,16.18c-4.794,3.342 -6.827,2.439 -9.561,-3.716c-8.682,-19.552 -19.746,-38.07 -28.027,-57.772c-5.803,-13.797 -9.096,-28.754 -12.441,-43.44c-1.7,-7.463 -1.55,-15.481 -1.26,-23.211c0.172,-4.535 2.272,-8.991 3.514,-13.516c2.976,-3.373 6.748,-6.878 9.545,-11.038c2.544,-3.795 3.597,-8.59 6.132,-12.398c1.708,-2.572 4.847,-4.2 8.783,-7.432c0.317,-1.022 1.29,-4.125 2.725,-8.726c3.17,2.598 5.587,4.583 7.313,5.996c5.524,-3.606 11.349,-7.396 18.626,-12.138c-0.105,-0.057 1.925,1.008 3.932,2.061c5.314,-8.545 7.432,-9.875 11.354,-6.644c2.299,-3.258 3.281,-10.919 9.752,-3.623c0.831,0.942 5.336,-1.37 8.757,-2.352c1.932,2.801 5.146,5.627 5.961,9.026c1.483,6.212 6.444,8.141 10.565,7.11c4.214,-1.056 7.938,-5.256 11.134,-8.757c2.043,-2.231 2.739,-5.697 3.324,-7.009c-0.783,-3.57 -2.17,-6.194 -1.73,-8.461c3.103,-15.995 -0.682,-29.621 -13.023,-40.562c-3.962,-3.518 -7.519,-7.978 -12.138,-10.139c-5.793,-2.717 -12.608,-3.153 -18.75,-5.257c-3.887,-1.33 -8.017,-3.228 -10.865,-6.058c-6.929,-6.877 -16.443,-8.586 -24.799,-3.461c-1.189,0.727 -2.378,2.158 -3.527,2.122c-16.636,-0.541 -23.971,16.136 -37.971,20.539c-1.458,0.458 -1.99,3.725 -3.038,5.644c-1.008,1.849 -1.933,3.8 -3.24,5.424c-2.351,2.915 -5.266,5.406 -7.401,8.458c-3.795,5.41 -8.167,10.729 -10.496,16.778c-2.76,7.177 -4.86,15.057 -5.023,22.679c-0.263,12.696 1.211,25.433 2.021,38.149c0.207,3.235 0.458,6.502 1.101,9.676c1.461,7.23 3.152,14.41 4.798,21.6c1.484,6.507 2.153,13.375 4.751,19.412c4.71,10.931 10.641,21.335 15.959,32.007c9.042,18.134 17.619,36.524 27.339,54.285c1.955,3.57 5.023,5.948 5.367,10.843c1.096,15.687 1.436,15.661 -13.282,24.528c-5.587,-11.835 -9.501,-24.884 -17.183,-35.103c-8.246,-10.967 -13.675,-23.462 -20.027,-35.076c-4.226,-7.736 -13.345,-15.225 -10.131,-27.221c-1.769,1.963 -2.716,3.011 -4.054,4.499c-0.401,-13.948 -10.821,-22.243 -15.981,-33.082c-5.274,-11.063 -13.529,-20.666 -19.847,-31.285c-5.851,-9.836 -3.72,-20.935 -3.623,-31.677c0.141,-15.427 -0.154,-30.863 0.044,-46.286c0.146,-11.671 0.858,-23.33 1.149,-35.001c0.277,-11.011 -0.467,-22.119 0.805,-33.002c0.692,-5.891 3.862,-11.935 7.295,-16.972c8.999,-13.213 22.876,-20.059 37.198,-25.734c8.417,-3.332 17.838,2.695 20.537,11.235c0.837,2.651 4.324,4.79 7.026,6.464c8.013,4.966 25.53,3.694 27.723,-2.902c2.47,-7.4 7.704,-14.77 3.588,-23.707c-4.904,-10.665 -10.83,-17.889 -24.086,-19.386c-16.426,-1.853 -30.615,3.206 -45.135,8.792c-2.795,1.075 -5.816,1.563 -6.946,1.854c-8.753,8.541 -16.58,16.18 -24.408,23.823c-0.872,-0.299 -1.739,-0.599 -2.611,-0.895c0,-6.682 -0.031,-13.365 0.009,-20.049c0.04,-7.898 5.085,-13.247 9.764,-18.72c7.252,-8.479 14.903,-16.637 21.718,-25.452c1.836,-2.378 1.255,-6.626 1.964,-11.174c1.532,1.832 2.456,2.941 3.425,4.099c6.467,-4.68 13.709,-13.965 19.521,-13.142c8.039,1.141 10.46,-5.556 16.306,-5.851c6.486,-0.326 12.988,-1.026 19.389,-2.122c5.472,-0.938 10.808,-2.668 16.457,-4.112c7.281,6.925 14.695,13.78 21.885,20.864m27.679,-41.31c53.067,37.99 86.694,94.948 98.611,161.019c3.236,17.914 4.908,36.484 4.908,55.534c0,19.614 -1.738,38.189 -4.908,55.805l0,-62.184c-1.624,-2.949 -4.429,-5.811 -4.662,-8.871c-0.854,-11.152 -2.03,-21.243 -9.879,-30.894c-5.455,-6.709 -5.085,-17.831 -9.03,-26.169c-5.529,-11.685 -12.569,-22.661 -19.111,-33.848c-5.011,-8.572 -9.307,-17.787 -15.581,-25.342c-13.727,-16.536 -28.132,-32.557 -43.056,-48.024c-5.534,-5.737 -13.42,-9.153 -19.935,-14.031c-1.778,-1.33 -3.998,-5.068 -3.381,-6.054c2.148,-3.443 5.085,-6.669 8.4,-9.029c4.909,-3.501 10.395,-6.182 15.321,-9.03c0.66,0.255 1.47,0.682 2.303,1.118m-80.725,-324.001c0,0.005 -0.005,0.005 -0.009,0.008c0.009,0.023 0.009,0.045 0.018,0.067c-0.005,-0.031 -0.005,-0.049 -0.009,-0.075" style="fill-rule:nonzero;"/></g></g></svg>