<?xml version="1.0" encoding="UTF-8" standalone="no"?>
<!DOCTYPE svg PUBLIC "-//W3C//DTD SVG 1.1//EN" "http://www.w3.org/Graphics/SVG/1.1/DTD/svg11.dtd">
<svg width="100%" height="100%" viewBox="0 0 656 1011" version="1.1" xmlns="http://www.w3.org/2000/svg" xmlns:xlink="http://www.w3.org/1999/xlink" xml:space="preserve" style="fill-rule:evenodd;clip-rule:evenodd;stroke-linejoin:round;stroke-miterlimit:2;">
    <g id="ArtBoard1" transform="matrix(1,0,0,1.01915,0,0)">
        <rect x="0" y="0" width="656" height="992" style="fill:none;"/>
        <g transform="matrix(1,0,0,0.981245,0,18.6048)">
            <path d="M519.085,378.724C511.541,376.962 504.399,375.297 496.362,373.417C496.733,371.562 497.392,368.213 498.198,364.141C502.841,365.996 508.221,369.941 507.465,359.688C509.535,361.978 510.814,363.394 511.498,364.15C518.904,357.252 526.931,351.285 532.985,343.732C540.318,334.597 545.142,323.417 552.656,314.467C557.553,308.642 558.071,302.364 559.955,295.914C562.006,288.898 562.016,283.098 557.304,276.926C555.83,274.998 556.962,269.793 558.574,267.088C561.322,262.474 566.42,259.154 568.709,254.409C574.695,241.993 580.544,229.372 584.699,216.277C586.501,210.604 584.934,204.018 591.657,200.507C592.409,200.112 592.736,198.266 592.711,197.104C592.257,178.243 593.131,159.192 590.646,140.595C589.211,129.834 582.478,119.733 577.678,109.543C577.185,108.489 573.611,108.884 572.396,108.728C569.881,102.381 567.46,96.278 564.974,90.004C563.485,91.034 562.231,91.893 560.722,92.933C559.238,80.058 557.036,77.808 543.658,76.924C541.28,76.763 537.184,78.779 536.632,80.62C535.827,83.3 536.427,88.056 538.326,89.608C545.176,95.213 552.851,99.803 560.116,104.915C560.937,105.496 561.23,106.941 561.576,108.044C562.958,112.404 563.441,117.287 565.741,121.08C579.231,143.359 570.252,162.507 558.251,181.539C554.878,186.885 552.412,192.08 545.03,193.808C542.193,194.472 541.485,201.757 538.453,204.564C530.212,212.215 521.282,219.133 512.533,226.228C510.487,227.892 508.08,229.108 504.999,231.061L504.999,223.801C495.537,241.09 468.015,263.407 459.28,262.66C457.093,257.548 455.018,253.091 453.265,248.511C449.94,239.845 445.668,243.775 442.031,247.861C436.846,253.691 433.062,261.112 427.066,265.799C417.228,273.489 405.603,278.884 395.663,286.467C386.899,293.151 378.56,300.806 371.578,309.302C363.483,319.159 356.789,330.247 348.528,342.477C347.947,342.453 347.351,342.458 346.775,342.438C345.779,337.81 344.485,333.499 344.564,329.231C344.778,317.401 345.452,305.537 346.805,293.79C347.22,290.177 349.597,285.139 352.497,283.791C359.465,280.544 360.119,275.676 358.84,268.109C355.983,269.276 353.454,270.599 350.759,271.312C349.021,271.771 346.531,272.02 345.325,271.107C344.173,270.237 343.773,267.718 343.86,265.965C344.485,252.724 347.029,239.298 345.55,226.32C344.319,215.55 342.982,204.677 346.941,195.176C351.999,183.038 359.904,172.028 367.096,160.862C373.833,150.399 381.235,140.371 389.926,127.877C389.926,136.362 389.838,142.119 389.97,147.865C390.019,150.023 390.268,152.269 390.922,154.315C395.799,169.655 407.576,179.396 419.372,189.136C430.684,198.476 444.194,195.6 453.021,183.077C455.365,179.747 461.145,178.102 465.652,177.189C473.84,175.529 479.894,165.466 476.852,157.474C475.827,154.779 474.88,151.839 474.884,149.012C474.909,134.482 469.221,121.676 463.303,108.918C458.265,98.055 447.953,93.944 437.851,90.077C432.676,88.095 426.085,89.12 421.544,86.415C419.005,84.902 417.721,78.042 418.8,74.478C420.368,69.317 424.576,64.962 429.434,57.555C428.663,55.368 429.454,52.912 431.006,49.548C435.342,40.155 438.203,30.082 441.43,20.171L598.624,20.171L598.624,0.485L145.953,0.485L144.634,6.32L132.121,61.681L114.969,137.588L105.517,179.42L33.487,498.148L53.163,498.148C61.092,485.991 70.563,473.589 81.71,461.457C79.786,466.158 78.024,470.904 76.818,475.781C72.292,494.12 68.108,512.751 71.086,532.1C73.913,550.453 75.841,568.943 78.463,587.334C78.859,590.108 80.963,592.622 82.154,595.307C89.239,611.244 96.386,627.146 103.183,643.199C103.881,644.849 101.293,648.15 102.138,649.439C110.169,661.664 117.137,675.183 127.551,685.002C132.873,690.021 137.872,695.597 143.184,700.709C153.467,710.6 162.909,721.386 173.504,730.906C179.255,736.072 186.769,739.241 193.292,743.605C199.844,747.985 205.728,753.561 212.666,757.139C223.856,762.915 235.833,767.158 247.165,772.69C253.893,775.971 259.961,780.585 266.445,784.393C268.999,785.892 272.055,786.551 274.584,788.084C285.325,794.568 295.993,801.174 306.549,807.96C307.311,808.453 307.487,811.705 306.998,811.974C305.475,812.808 303.341,813.477 301.735,813.067C285.345,808.912 269.228,802.477 252.608,800.725C231.16,798.464 209.165,798.596 188.517,807.389C187.067,808.004 185.886,809.366 184.748,810.538C183.327,812.008 182.39,814.244 180.71,815.103C171.409,819.864 161.947,824.307 152.803,828.73C153.681,821.231 143.926,808.771 132.423,803.888C122.683,799.753 112.899,791.067 101.825,804.02C102.148,801.711 102.323,800.456 102.714,797.629C93.418,799.807 83.717,800.183 76.115,804.367C70.153,807.653 64.944,812.472 59.988,817.525C39.882,782.401 27.955,743.532 22.237,704.805L1.146,704.805C3.191,720.814 6.355,736.887 10.686,752.775C20.231,787.762 35.61,821.807 57.806,852.297C57.342,861.647 62.493,875.269 69.982,877.198C73.708,878.154 77.428,879.277 81.168,880.337C93.022,892.743 106.278,904.285 121.072,914.704C112.567,926.998 109.408,940.737 116.531,955.619C121.082,965.12 127.941,973.513 134.03,982.814C134.22,982.691 132.389,983.893 129.948,985.494C141.378,985.494 152.06,984.879 162.626,985.719C169.173,986.241 175.491,990.059 182.014,990.396C188.073,990.713 194.84,989.527 200.235,986.856C205.191,984.405 209.028,979.347 212.763,974.933C214.492,972.897 214.99,969.714 215.712,966.96C216.386,964.378 217.055,961.79 217.714,959.197C244.675,966.511 274.53,971.174 307.462,972.707C315.323,973.073 323.301,973.317 331.518,973.317C453.212,973.317 563.681,915.456 618.5,811.627C621.981,805.031 625.306,798.303 628.328,791.336C645.324,752.154 654.854,707.207 654.854,657.001C654.854,609.31 645.803,563.806 628.328,522.945C607.734,474.771 575.359,433.114 532.223,401.935C531.364,396.452 527.834,391.589 524.768,386.741C522.883,383.758 520.686,380.965 519.085,378.724M310.538,380.707C306.808,395.764 309.425,411.261 302.16,426.484C290.183,451.575 282.557,478.633 279.764,506.809C278.558,518.986 273.949,530.811 272.543,542.983C271.513,551.893 273.539,561.111 273.559,570.192C273.583,582.291 273.012,594.394 272.617,606.488C272.582,607.538 271.948,608.568 269.433,609.681C264.648,585.303 258.521,561.092 255.538,536.499C253.39,518.795 254.854,500.555 255.772,482.607C256.661,465.319 258.253,448.006 260.791,430.888C262.525,419.19 265.327,407.355 269.843,396.496C271.865,391.638 279.071,388.733 284.246,385.447C291.355,380.941 295.422,371.894 295.032,363.433C300.007,363.023 305.021,362.661 310.152,362.422C311.178,368.657 311.949,375.009 310.538,380.707M272.382,307.851C277.904,307.168 281.854,306.685 285.462,306.24C291.887,295.23 298.908,283.21 305.924,271.185C306.95,271.482 307.97,271.78 308.99,272.078L308.99,324.417C295.705,318.407 284.847,313.491 272.382,307.851M286.204,332.151C290.847,335.964 295.784,339.441 300.363,343.303C289.104,344.084 278.163,345.26 267.573,346.842C268.798,342.624 269.985,338.391 271.503,334.28C274.452,326.292 278.549,325.868 286.204,332.151M296.648,825.713C290.291,826.411 283.67,826.24 277.655,828.071C272.04,829.78 265.454,829.199 261.333,830.908C255.987,833.124 250.519,833.524 245.28,835.175C238.933,837.172 231.766,837.186 225.931,840.052C218.349,843.773 211.767,849.524 204.663,854.255C201.709,856.223 198.512,857.819 195.265,859.675C195.265,861.462 196.241,864.562 195.104,866.075C188.673,874.644 178.538,880.283 175.242,891.483C174.978,892.372 170.721,893.324 169.569,892.499C162.196,887.231 156.762,891.591 149.736,894.086C144.712,895.873 140.006,897.909 135.724,900.491C127.399,894.73 119.632,888.569 112.323,882.099C114.813,880.825 117.181,878.931 119.802,877.935C136.905,871.436 151.24,862.057 157.104,843.485C157.69,841.644 157.739,839.632 157.875,838.754C162.645,836.918 167.162,835.385 171.502,833.466C182.17,828.74 192.755,823.833 204.204,818.623C209.956,822.026 235.129,819.331 239.631,812.916C240.08,815.147 240.383,816.626 240.656,817.974C259.673,815.84 278.388,816.797 296.55,822.881C296.584,823.823 296.614,824.77 296.648,825.713M307.472,849.978C307.496,874.053 307.467,898.128 307.467,922.203C307.462,932.481 307.462,942.749 307.462,952.992C274.433,951.395 244.85,946.498 218.402,938.891C214.745,929.791 211.152,920.661 207.08,911.745C205.664,908.635 202.823,906.175 199.537,902.034C197.784,909.387 196.729,913.796 195.343,919.611C192.872,911.775 201.363,903.04 190.788,899.344C196.656,892.538 201.49,885.444 207.754,880.005C218.564,870.611 230.301,862.292 241.579,853.435C256.51,841.707 275.824,844.456 292.405,838.007C299.338,835.307 307.462,842.459 307.472,849.978M109.378,505.696C112.469,495.043 119.392,485.707 128.747,479.805C137.667,474.175 147.998,470.718 157.885,466.749C158.935,466.329 161.176,468.878 162.689,469.928C170.574,464.894 177.654,459.484 185.505,455.627C192.604,452.141 193.253,445.657 194.405,439.803C198.184,420.61 201.265,401.281 204.478,381.976C213.627,378.802 223.133,375.912 233.089,373.412C230.774,378.495 233.816,379.623 238.674,379.999C230.374,389.339 230.784,392.81 241.184,395.569C239.24,397.639 237.522,399.47 235.242,401.906C233.65,399.997 232.112,398.156 230.574,396.311C229.905,396.609 229.232,396.906 228.558,397.199C229.705,400.602 230.848,404.001 231.551,406.08C229.94,410.519 228.709,413.907 227.484,417.295C230.633,416.704 233.782,416.109 238.342,415.245C231.116,426.977 224.31,438.031 217.499,449.085C217.753,449.387 218.002,449.695 218.251,449.998C220.121,448.211 221.991,446.424 223.856,444.637C224.369,444.822 224.886,445.003 225.399,445.184C223.661,450.481 221.923,455.773 220.145,461.188C221.849,462.565 225.75,464.205 226.654,466.861C227.498,469.371 224.691,472.896 224.378,476.065C223.788,482.041 223.09,488.178 223.827,494.071C224.564,499.949 227.21,505.559 228.641,511.379C230.037,517.057 230.584,522.96 232.166,528.575C235.281,539.653 226.82,551.307 234.231,562.288C235.642,564.377 234.436,568.23 234.436,571.267C233.513,571.423 232.591,571.584 231.668,571.74C230.516,568.064 229.358,564.387 228.201,560.711C227.816,560.755 227.425,560.794 227.034,560.838C227.664,568.161 228.113,575.509 228.963,582.809C229.822,590.171 229.798,591.353 230.887,598.779C235.042,602.934 239.914,602.074 242.526,601.113C245.031,613.392 246.286,624.778 258.394,630.832C256.475,630.436 254.557,630.036 253.238,629.767C252.452,636.749 251.705,643.355 250.978,649.844C256.788,649.072 271.996,673.919 271.347,683.918C276.986,683.684 276.835,684.563 278.944,688.757C282.42,695.675 287.064,702.012 291.433,708.447C291.599,708.686 294.094,707.349 293.655,707.534C297.766,715.331 301.628,722.274 305.138,729.398C308.849,736.916 308.175,740.637 305.421,742.316C305.67,746.881 305.856,750.172 306.056,753.873L308.16,753.873L308.16,785.213C301.73,782.259 295.862,780.633 291.282,777.26C277.265,766.933 263.76,755.914 250.021,745.207C239.997,737.395 228.738,730.735 220.253,721.522C213.945,714.667 210.752,704.727 206.978,695.816C201.871,683.757 196.954,671.541 193.131,659.032C191.432,653.476 190.26,645.513 192.975,641.305C198.858,632.189 195.465,621.272 203.433,611.507C211.748,601.323 211.992,584.547 216.054,569.592C216.171,569.611 218.568,569.948 222.87,570.559C213.642,561.179 203.511,554.388 198.487,544.892C192.379,533.355 180.989,522.853 186.096,506.799C189.572,495.887 187.292,494.364 175.969,496.126C165.521,497.747 155.014,499.012 146.143,500.218C133.937,509.529 122.805,518.019 111.165,526.9C101.274,521.476 107.386,512.561 109.378,505.696M238.401,599.819C237.19,596.889 235.603,594.048 234.856,591.001C233.567,585.777 232.801,580.426 231.814,575.129C232.542,575.07 233.269,575.011 233.997,574.948C237.522,581.969 235.217,584.639 239.192,592.554C237.927,593.11 241.081,598.642 238.401,599.819M120.974,199.247C125.105,204.32 129.274,209.359 133.458,214.383C145.913,229.308 159.53,243.331 173.323,257.06C182.072,265.77 191.896,273.47 201.651,281.091C207.388,285.573 213.486,290.563 220.233,292.526C228.123,294.82 233.343,299.381 238.767,304.766C240.432,306.416 244.221,305.923 247.101,306.426C247.721,321.073 236.082,334.172 242.717,349.337C240.691,347.746 238.659,346.154 235.09,343.356C235.842,347.038 236.414,349.85 236.98,352.628C228.226,354.654 219.774,356.983 211.543,359.527C209.595,358.331 207.861,357.515 206.333,357.793C195.211,359.834 182.815,361.167 173.934,367.226C166.473,372.314 159.277,377.821 150.84,380.174C134.054,384.852 122.019,396.413 110.516,407.858C108.944,409.425 107.655,411.427 106.425,413.536C89.366,426.904 74.879,441.307 63.005,455.978L120.974,199.247ZM269.355,43.226C271.63,55.524 284.642,65.25 278.261,79.829C277.528,81.504 282.967,85.878 284.886,88.197C284.886,109.665 286.053,131.363 284.427,152.85C283.509,164.978 277.494,176.637 274.662,188.716C269.228,211.883 264.478,235.211 259.336,258.446C256.968,269.134 254.351,279.758 251.11,293.531C242.98,281.394 227.176,281.272 225.023,266.629C218.046,277.234 213.281,265.433 209.111,263.231C201.797,259.364 196.051,252.334 190.026,246.25C176.653,232.741 161.933,220.169 150.708,205.028C142.125,193.447 134.913,180.807 128.034,167.985L156.787,40.667C157.416,40.853 158.041,41.028 158.691,41.248C171.219,45.442 182.487,53.884 198.385,47.981C205.728,45.257 212.163,37.669 221.815,40.062C221.112,37.479 220.565,35.482 220.531,35.35C230.652,22.715 242.429,22.983 254.776,30.932C254.62,31.195 253.712,32.684 253.814,32.518C259.351,36.117 268.554,38.895 269.355,43.226M312.501,20.171C312.154,29.897 311.822,39.627 311.412,49.348C310.733,65.509 310.421,81.709 308.917,97.796C308.424,103.079 304.699,108.054 302.453,113.171C301.569,113.122 300.681,113.073 299.797,113.024L299.797,99.427C297.736,99.651 296.218,99.813 294.421,100.008C297.575,91.488 301.506,84.409 292.078,76.714C288.772,74.019 291.028,64.488 290.794,58.078C290.725,56.193 291.624,53.649 290.706,52.517C283.221,43.245 286.351,29.76 277.465,20.762C277.304,20.596 277.221,20.352 277.074,20.171L312.501,20.171ZM313.863,171.603C314.166,173.351 312.569,175.358 312.223,177.311C311.812,179.606 311.92,181.988 311.617,184.307C311.09,188.316 309.903,192.305 309.903,196.303C309.913,210.755 309.127,224.992 301.76,237.955C296.384,247.417 290.53,256.625 285.56,266.293C282.235,272.757 280.077,279.817 277.396,286.613C277.875,286.706 278.358,286.799 278.837,286.896C277.128,288.981 274.569,290.817 273.857,293.204C271.572,300.879 271.835,300.958 261.856,300.953C275.556,245.23 289.148,189.927 302.741,134.629C303.918,134.604 305.094,134.585 306.271,134.561C307.291,139.794 308.248,145.038 309.347,150.257C310.841,157.376 312.633,164.441 313.863,171.603M312.569,775.155C313.673,766.875 314.776,758.594 315.977,749.611C322.417,754.947 321.216,765.796 312.569,775.155M320.752,888.573C319.986,891.186 319.214,893.793 318.448,896.405C317.891,898.309 316.26,901.243 316.949,901.966C322.412,907.717 317.989,912.199 313.594,916.769C314.615,907.195 315.63,897.621 316.651,888.046C318.018,888.222 319.385,888.398 320.752,888.573M340.936,926.29C341.317,902.908 342.083,879.531 342.674,856.149C342.796,851.213 344.085,848.933 349.714,851.428C357.443,854.851 378.667,870.943 383.789,877.822C384.985,879.429 387.397,880.117 388.632,881.704C397.332,892.841 406.057,903.968 414.27,915.461C415.607,917.326 414.455,920.968 414.455,925.274C415.378,926.31 417.741,928.966 421.037,932.671C408.479,942.172 394.467,946.205 383.442,949.779C369.62,951.82 355.539,953.046 341.258,953.431C341.043,944.379 340.789,935.332 340.936,926.29M342.933,780.023C346.741,786.893 350.193,793.308 353.821,799.616C356.94,805.05 360.617,810.191 363.4,815.782C366.149,821.309 371.876,826.172 370.631,833.705C350.759,819.971 334.384,806.31 342.933,780.023M348.147,20.171C347.327,21.182 346.599,22.08 345.73,23.149C345.311,22.095 344.93,21.147 344.539,20.171L348.147,20.171ZM400.604,69.088C401.048,62.78 399.847,55.739 402.254,50.295C406.585,40.511 408.723,30.434 409.997,20.171L422.633,20.171C420.744,25.063 418.869,29.955 416.94,34.828C412.351,46.414 407.669,57.961 403.025,69.522C402.215,69.376 401.409,69.234 400.604,69.088M385.444,76.045C382.822,87.626 374.747,90.897 364.537,84.985C361.955,83.491 357.731,84.311 354.372,84.814C350.715,85.356 347.19,86.762 343.607,87.792C343.231,86.908 342.855,86.03 342.479,85.146C344.207,83.256 345.935,81.367 347.664,79.472C346.834,79.443 345.999,79.414 345.164,79.389C344.881,72.173 343.685,64.84 344.612,57.785C345.359,52.116 345.809,45.017 355.857,45.681C359.23,45.906 365.314,39.837 366.241,35.751C367.901,28.447 372.637,24.194 377.583,20.171L399.075,20.171C398.597,21.665 398.036,23.139 397.655,24.658C393.348,41.727 389.335,58.879 385.444,76.045M373.34,105.383C376.87,101.17 380.049,97.376 383.227,93.578C385.063,95.287 386.899,96.991 388.735,98.694C386.103,100.066 383.471,101.438 379.712,103.401C379.951,104.426 380.586,107.136 381.67,111.76C378.101,109.026 376.094,107.493 373.34,105.383M345.657,103.504C350.686,101.302 356.677,98.279 362.965,96.156C364.972,95.482 368.873,96.453 369.928,98.011C370.997,99.598 370.577,103.899 369.156,105.169C360.256,113.137 358.054,123.277 357.541,134.556C357.375,138.183 354.773,141.835 352.829,145.219C351.018,148.378 348.601,151.195 344.939,156.248C342.025,138.149 344.271,121.52 345.657,103.504M488.272,462.662C502.382,476.558 517.698,489.525 529.987,504.895C542.042,519.972 550.923,537.583 561.288,554.027C563.705,557.864 566.039,561.97 569.32,564.954C570.721,566.228 574.456,564.924 578.186,564.739C576.253,566.887 574.5,568.835 572.42,571.144C576.472,579.347 580.574,587.637 584.67,595.923C584.846,595.664 585.022,595.4 585.202,595.141C586.95,601.904 588.615,608.695 590.461,615.433C594.879,631.554 600.167,647.491 603.54,663.827C605.386,672.762 603.868,682.361 604.195,691.647C605.03,715.785 601.109,739.089 593.063,761.851C587.048,778.861 579.646,795.056 569.588,810.123C562.826,820.239 557.949,831.698 550.601,841.312C543.321,850.847 535.309,861.247 525.163,866.725C516.756,871.261 512.103,878.828 504.496,883.53C495.781,888.91 487.881,895.599 479.454,901.473C474.137,905.179 471.882,904.178 468.85,897.352C459.222,875.669 446.952,855.134 437.768,833.285C431.333,817.984 427.681,801.398 423.971,785.111C422.086,776.835 422.252,767.944 422.574,759.371C422.765,754.342 425.094,749.401 426.471,744.382C429.771,740.642 433.955,736.755 437.056,732.142C439.878,727.933 441.045,722.616 443.857,718.393C445.751,715.541 449.232,713.735 453.597,710.151C453.949,709.018 455.028,705.576 456.619,700.474C460.135,703.355 462.815,705.557 464.729,707.124C470.856,703.125 477.316,698.922 485.386,693.663C485.269,693.6 487.52,694.781 489.746,695.948C495.64,686.472 497.988,684.997 502.338,688.581C504.887,684.968 505.976,676.472 513.153,684.563C514.075,685.607 519.07,683.044 522.864,681.955C525.007,685.061 528.571,688.195 529.475,691.964C531.12,698.853 536.622,700.992 541.192,699.849C545.865,698.678 549.995,694.02 553.54,690.138C555.805,687.663 556.577,683.82 557.226,682.365C556.357,678.406 554.819,675.496 555.307,672.982C558.749,655.244 554.551,640.133 540.865,628C536.471,624.099 532.526,619.153 527.404,616.756C520.979,613.743 513.421,613.26 506.61,610.926C502.299,609.452 497.719,607.347 494.561,604.208C486.876,596.582 476.325,594.687 467.058,600.37C465.74,601.176 464.421,602.763 463.147,602.724C444.697,602.123 436.563,620.618 421.037,625.5C419.42,626.008 418.83,629.631 417.668,631.759C416.55,633.81 415.524,635.973 414.074,637.775C411.467,641.007 408.235,643.77 405.867,647.154C401.658,653.154 396.81,659.052 394.227,665.76C391.166,673.719 388.837,682.458 388.656,690.91C388.364,704.99 389.999,719.115 390.897,733.216C391.127,736.804 391.405,740.427 392.118,743.947C393.739,751.964 395.614,759.927 397.44,767.9C399.085,775.116 399.827,782.733 402.708,789.427C407.932,801.55 414.509,813.087 420.407,824.922C430.435,845.032 439.946,865.426 450.726,885.122C452.894,889.081 456.297,891.718 456.678,897.147C457.894,914.543 458.27,914.514 441.948,924.347C435.752,911.223 431.412,896.752 422.892,885.419C413.747,873.257 407.727,859.401 400.682,846.521C395.995,837.943 385.883,829.638 389.447,816.334C387.485,818.511 386.435,819.673 384.951,821.323C384.506,805.856 372.95,796.657 367.228,784.637C361.379,772.368 352.224,761.719 345.218,749.943C338.729,739.035 341.092,726.727 341.2,714.814C341.356,697.706 341.029,680.588 341.248,663.485C341.41,650.542 342.2,637.613 342.523,624.67C342.83,612.459 342.005,600.141 343.416,588.072C344.183,581.539 347.698,574.836 351.506,569.25C361.486,554.598 376.875,547.006 392.758,540.712C402.093,537.017 412.541,543.701 415.534,553.172C416.462,556.112 420.329,558.484 423.326,560.34C432.212,565.847 451.639,564.436 454.071,557.122C456.81,548.915 462.615,540.742 458.05,530.831C452.611,519.005 446.039,510.993 431.338,509.333C413.122,507.278 397.386,512.888 381.284,519.083C378.184,520.275 374.834,520.817 373.58,521.139C363.873,530.611 355.193,539.082 346.512,547.558C345.545,547.226 344.583,546.894 343.616,546.566C343.616,539.155 343.582,531.744 343.626,524.332C343.67,515.573 349.265,509.641 354.455,503.572C362.497,494.169 370.982,485.122 378.54,475.347C380.576,472.71 379.932,467.999 380.718,462.955C382.417,464.987 383.442,466.217 384.516,467.501C391.688,462.311 399.72,452.014 406.165,452.927C415.08,454.192 417.765,446.765 424.249,446.438C431.441,446.077 438.652,445.301 445.751,444.085C451.82,443.045 457.737,441.126 464.002,439.525C472.077,447.205 480.299,454.807 488.272,462.662M518.968,416.851C577.82,458.981 615.112,522.145 628.328,595.415C631.917,615.281 633.772,635.875 633.772,657.001C633.772,678.752 631.844,699.351 628.328,718.886L628.328,649.927C626.527,646.656 623.417,643.482 623.158,640.089C622.211,627.722 620.907,616.531 612.202,605.829C606.153,598.388 606.563,586.055 602.188,576.808C596.056,563.85 588.249,551.678 580.994,539.272C575.437,529.766 570.672,519.547 563.715,511.169C548.491,492.831 532.516,475.064 515.965,457.912C509.828,451.55 501.083,447.761 493.857,442.352C491.885,440.877 489.424,436.732 490.108,435.638C492.49,431.82 495.747,428.242 499.423,425.625C504.867,421.743 510.951,418.77 516.414,415.611C517.146,415.894 518.045,416.368 518.968,416.851M429.444,57.546C429.444,57.551 429.439,57.551 429.434,57.555C429.444,57.58 429.444,57.604 429.454,57.629C429.449,57.594 429.449,57.575 429.444,57.546" style="fill:#000;fill-rule:nonzero;"/>
        </g>
        <g transform="matrix(0.999579,0,0,0.981207,-0.122992,-8.83086)">
            <rect x="146.145" y="9.643" width="452.856" height="7.738"/>
        </g>
    </g>
</svg>
